<?xml version="1.0" standalone="no"?>
<!DOCTYPE svg PUBLIC "-//W3C//DTD SVG 20010904//EN"
 "http://www.w3.org/TR/2001/REC-SVG-20010904/DTD/svg10.dtd">
<svg version="1.0" xmlns="http://www.w3.org/2000/svg"
 width="1240.000000pt" height="1240.000000pt" viewBox="0 0 1240.000000 1240.000000"
 preserveAspectRatio="xMidYMid meet">
<metadata>
Created by potrace 1.14, written by Peter Selinger 2001-2017
</metadata>
<g transform="translate(0.000000,1240.000000) scale(0.100000,-0.100000)"
fill="#000000" stroke="none">
<path d="M5907 11794 c-1 -1 -96 -4 -212 -8 -232 -8 -311 -11 -460 -22 -275
-19 -399 -29 -485 -39 -19 -2 -62 -7 -95 -10 -63 -6 -123 -14 -165 -20 -14 -2
-69 -9 -124 -15 -54 -7 -106 -13 -115 -15 -18 -3 -78 -12 -136 -20 -187 -26
-649 -112 -855 -160 -91 -21 -282 -68 -305 -76 -16 -5 -102 -29 -190 -54 -588
-164 -1154 -408 -1530 -658 -615 -410 -870 -873 -744 -1347 196 -733 1360
-1388 3074 -1729 221 -44 543 -99 685 -116 70 -9 135 -17 154 -21 10 -2 44 -6
75 -9 51 -5 95 -10 176 -20 17 -2 64 -7 105 -10 41 -4 82 -9 90 -10 9 -2 58
-6 110 -10 52 -5 109 -9 125 -11 17 -1 50 -3 73 -3 41 -1 49 -6 136 -93 158
-159 241 -332 272 -568 8 -61 7 -211 -1 -250 -3 -14 -8 -41 -11 -60 -15 -88
-94 -290 -114 -290 -5 0 -9 -3 -8 -7 1 -5 -4 -20 -11 -34 -12 -24 -19 -27 -57
-25 -24 0 -44 -1 -44 -4 0 -4 -10 -6 -22 -7 -30 0 -174 -13 -213 -18 -16 -2
-52 -7 -80 -10 -27 -4 -63 -9 -80 -11 -74 -9 -122 -15 -150 -20 -16 -3 -41 -7
-55 -9 -59 -9 -304 -50 -350 -60 -148 -30 -403 -87 -470 -104 -337 -88 -713
-211 -965 -316 -250 -104 -522 -239 -734 -366 -14 -8 -79 -50 -145 -93 -454
-297 -787 -647 -974 -1021 -68 -138 -133 -346 -148 -475 -3 -30 -8 -66 -10
-80 -6 -32 -5 -237 0 -270 3 -14 7 -45 10 -70 37 -283 177 -585 405 -868 79
-99 285 -302 396 -392 44 -35 85 -69 92 -75 6 -5 27 -20 45 -33 18 -13 57 -41
87 -63 65 -48 280 -182 376 -234 39 -21 84 -47 100 -56 17 -10 44 -25 60 -33
17 -7 82 -38 145 -68 160 -76 166 -79 345 -151 233 -95 707 -249 895 -292 8
-2 65 -15 125 -30 277 -67 638 -133 925 -169 137 -17 296 -35 376 -41 39 -3
88 -7 110 -10 40 -5 123 -10 374 -21 270 -13 938 -6 1065 11 17 2 75 6 130 10
55 3 111 8 125 9 14 2 60 7 103 11 43 3 88 8 100 10 12 2 49 6 82 10 93 10
198 25 365 50 442 68 971 198 1384 342 102 35 356 133 411 158 17 8 75 34 130
58 586 260 1102 633 1411 1019 497 619 537 1329 112 1963 -40 61 -83 121 -95
135 -11 14 -40 48 -63 75 -116 138 -313 322 -465 435 -33 25 -62 47 -65 50
-14 15 -230 157 -335 220 -150 89 -518 271 -690 340 -71 29 -143 59 -160 66
-66 28 -573 193 -642 209 -10 2 -98 25 -197 50 -98 25 -247 59 -330 76 -83 17
-160 33 -171 35 -94 19 -261 44 -272 40 -7 -3 -13 -2 -13 3 0 4 -6 8 -12 8
-15 0 -93 11 -123 17 -11 2 -49 7 -85 11 -36 3 -76 8 -90 10 -54 8 -127 16
-275 30 -38 4 -82 8 -98 10 -31 3 -57 21 -57 40 0 8 -4 15 -8 17 -25 10 -96
195 -118 308 -14 73 -19 255 -9 315 8 46 18 99 21 110 2 6 5 19 8 30 27 119
117 280 216 387 96 105 115 115 230 122 52 4 109 9 125 11 17 2 66 7 110 10
44 4 94 8 110 10 17 2 57 7 90 10 33 3 74 8 90 10 17 3 50 7 75 9 73 8 343 45
369 50 13 3 49 8 80 12 31 3 76 10 101 15 25 5 57 11 72 14 74 12 158 27 198
35 25 5 56 12 70 14 101 19 278 57 425 92 11 3 30 7 41 10 316 66 989 289
1274 421 361 168 559 282 774 442 308 232 522 508 596 771 30 107 37 279 16
395 -9 50 -20 99 -25 110 -5 11 -19 46 -31 77 -64 166 -234 390 -417 550 -262
227 -701 475 -1153 651 -174 68 -581 205 -655 222 -5 1 -17 5 -25 8 -22 8
-224 60 -390 101 -246 60 -760 158 -947 181 -26 3 -73 10 -103 15 -30 5 -75
12 -100 15 -58 7 -128 16 -160 20 -14 2 -54 6 -90 10 -36 4 -76 8 -90 10 -14
2 -56 7 -95 10 -38 3 -83 8 -100 10 -16 2 -70 6 -120 10 -49 3 -103 8 -120 10
-16 2 -84 7 -150 10 -66 4 -138 9 -160 10 -157 11 -1077 27 -1088 19z"/>
</g>
</svg>
